<?xml version="1.0" standalone="no"?><svg xmlns:xlink="http://www.w3.org/1999/xlink" xmlns="http://www.w3.org/2000/svg" viewBox="0 0 1000 562.5034739592019" preserveAspectRatio="xMaxYMax slice"><g transform="scale(1.1116669445834029)"><rect x="0" y="0" width="899.5555555555555" height="506" fill="#ffffff"/><path d="M 56.22 56.22 A 56.22 56.22 0 0 1  112.44 0 L 56.22 56.22 A 56.22 56.22 0 0 0 112.44 0" fill="#e39bb9"/><rect x="281.1111111111111" y="0" width="56.22222222222222" height="56.22222222222222" fill="#ffffff"/><path d="M 281.11 28.11 A 28.11 28.11 0 0 1  309.22 0 L 281.11 28.11 A 28.11 28.11 0 0 0 309.22 0" fill="#c02063"/><path d="M 309.22 28.11 A 28.11 28.11 0 0 1  337.33000000000004 0 L 309.22 28.11 A 28.11 28.11 0 0 0 337.33000000000004 0" fill="#ebb6cc"/><rect x="674.6666666666666" y="0" width="56.22222222222222" height="56.22222222222222" fill="#ffffff"/><path d="M 702.78 0 A 28.11 28.11 0 0 1  730.89 28.11 L 702.78 0 A 28.11 28.11 0 0 0 730.89 28.11" fill="#fbf0f4"/><path d="M 337.33 112.44 A 56.22 56.22 0 0 1  393.54999999999995 56.22 L 337.33 112.44 A 56.22 56.22 0 0 0 393.54999999999995 56.22" fill="#d15c8d"/><rect x="562.2222222222222" y="56.22222222222222" width="56.22222222222222" height="56.22222222222222" fill="#ffffff"/><path d="M 562.22 84.33 A 28.11 28.11 0 0 1  590.33 56.22 L 562.22 84.33 A 28.11 28.11 0 0 0 590.33 56.22" fill="#f5dce6"/><path d="M 590.33 56.22 A 28.11 28.11 0 0 1  618.44 84.33 L 590.33 56.22 A 28.11 28.11 0 0 0 618.44 84.33" fill="#c32b6a"/><path d="M 562.22 84.33 A 28.11 28.11 0 0 1  590.33 112.44 L 562.22 84.33 A 28.11 28.11 0 0 0 590.33 112.44" fill="#da7ca3"/><path d="M 337.33 168.66 A 56.22 56.22 0 0 1  393.54999999999995 112.44 L 337.33 168.66 A 56.22 56.22 0 0 0 393.54999999999995 112.44" fill="#c01f62"/><path d="M 787.11 112.44 A 56.22 56.22 0 0 1  843.33 168.66 L 787.11 112.44 A 56.22 56.22 0 0 0 843.33 168.66" fill="#cc4b81"/><path d="M 843.33 168.66 A 56.22 56.22 0 0 1  899.5500000000001 112.44 L 843.33 168.66 A 56.22 56.22 0 0 0 899.5500000000001 112.44" fill="#faecf2"/><rect x="0" y="168.66666666666666" width="56.22222222222222" height="56.22222222222222" fill="#ffffff"/><path d="M 0 168.67 A 28.11 28.11 0 0 1  28.11 196.77999999999997 L 0 168.67 A 28.11 28.11 0 0 0 28.11 196.77999999999997" fill="#d66c98"/><path d="M 112.44 168.67 A 56.22 56.22 0 0 1  168.66 224.89 L 112.44 168.67 A 56.22 56.22 0 0 0 168.66 224.89" fill="#c63572"/><rect x="168.66666666666666" y="168.66666666666666" width="56.22222222222222" height="56.22222222222222" fill="#ffffff"/><rect x="337.3333333333333" y="168.66666666666666" width="56.22222222222222" height="56.22222222222222" fill="#ffffff"/><rect x="674.6666666666666" y="168.66666666666666" width="56.22222222222222" height="56.22222222222222" fill="#ffffff"/><path d="M 702.78 196.78 A 28.11 28.11 0 0 1  730.89 224.89 L 702.78 196.78 A 28.11 28.11 0 0 0 730.89 224.89" fill="#d26090"/><rect x="730.8888888888889" y="168.66666666666666" width="56.22222222222222" height="56.22222222222222" fill="#ffffff"/><path d="M 759 224.89 A 28.11 28.11 0 0 1  787.11 196.78 L 759 224.89 A 28.11 28.11 0 0 0 787.11 196.78" fill="#c32a69"/><path d="M 56.22 224.89 A 56.22 56.22 0 0 1  112.44 281.11 L 56.22 224.89 A 56.22 56.22 0 0 0 112.44 281.11" fill="#f9e9f0"/><path d="M 337.33 224.89 A 56.22 56.22 0 0 1  393.54999999999995 281.11 L 337.33 224.89 A 56.22 56.22 0 0 0 393.54999999999995 281.11" fill="#de8bad"/><path d="M 506 281.11 A 56.22 56.22 0 0 1  562.22 224.89 L 506 281.11 A 56.22 56.22 0 0 0 562.22 224.89" fill="#edbed1"/><path d="M 730.89 281.11 A 56.22 56.22 0 0 1  787.11 224.89 L 730.89 281.11 A 56.22 56.22 0 0 0 787.11 224.89" fill="#c93d77"/><path d="M 0 337.33000000000004 A 56.22 56.22 0 0 1  56.22 281.11 L 0 337.33000000000004 A 56.22 56.22 0 0 0 56.22 281.11" fill="#d46694"/><path d="M 168.67 281.11 A 56.22 56.22 0 0 1  224.89 337.33000000000004 L 168.67 281.11 A 56.22 56.22 0 0 0 224.89 337.33000000000004" fill="#fdf8fa"/><path d="M 337.33 337.33000000000004 A 56.22 56.22 0 0 1  393.54999999999995 281.11 L 337.33 337.33000000000004 A 56.22 56.22 0 0 0 393.54999999999995 281.11" fill="#ce5286"/><rect x="393.55555555555554" y="281.1111111111111" width="56.22222222222222" height="56.22222222222222" fill="#ffffff"/><path d="M 421.67 337.33000000000004 A 28.11 28.11 0 0 1  449.78000000000003 309.22 L 421.67 337.33000000000004 A 28.11 28.11 0 0 0 449.78000000000003 309.22" fill="#c12365"/><rect x="562.2222222222222" y="281.1111111111111" width="56.22222222222222" height="56.22222222222222" fill="#ffffff"/><path d="M 730.89 281.11 A 56.22 56.22 0 0 1  787.11 337.33000000000004 L 730.89 281.11 A 56.22 56.22 0 0 0 787.11 337.33000000000004" fill="#f6dee8"/><path d="M 168.67 337.33 A 56.22 56.22 0 0 1  224.89 393.54999999999995 L 168.67 337.33 A 56.22 56.22 0 0 0 224.89 393.54999999999995" fill="#c12465"/><rect x="224.88888888888889" y="337.3333333333333" width="56.22222222222222" height="56.22222222222222" fill="#ffffff"/><path d="M 253 365.44 A 28.11 28.11 0 0 1  281.11 393.55 L 253 365.44 A 28.11 28.11 0 0 0 281.11 393.55" fill="#cc4b81"/><rect x="281.1111111111111" y="337.3333333333333" width="56.22222222222222" height="56.22222222222222" fill="#ffffff"/><rect x="337.3333333333333" y="337.3333333333333" width="56.22222222222222" height="56.22222222222222" fill="#ffffff"/><path d="M 337.33 365.44 A 28.11 28.11 0 0 1  365.44 337.33 L 337.33 365.44 A 28.11 28.11 0 0 0 365.44 337.33" fill="#edbfd2"/><path d="M 365.44 365.44 A 28.11 28.11 0 0 1  393.55 337.33 L 365.44 365.44 A 28.11 28.11 0 0 0 393.55 337.33" fill="#e5a3be"/><rect x="506" y="337.3333333333333" width="56.22222222222222" height="56.22222222222222" fill="#ffffff"/><path d="M 506 337.33 A 28.11 28.11 0 0 1  534.11 365.44 L 506 337.33 A 28.11 28.11 0 0 0 534.11 365.44" fill="#d56895"/><path d="M 534.11 365.44 A 28.11 28.11 0 0 1  562.22 337.33 L 534.11 365.44 A 28.11 28.11 0 0 0 562.22 337.33" fill="#fdf7fa"/><path d="M 506 365.44 A 28.11 28.11 0 0 1  534.11 393.55 L 506 365.44 A 28.11 28.11 0 0 0 534.11 393.55" fill="#e5a3be"/><path d="M 534.11 365.44 A 28.11 28.11 0 0 1  562.22 393.55 L 534.11 365.44 A 28.11 28.11 0 0 0 562.22 393.55" fill="#e5a2be"/><rect x="787.1111111111111" y="337.3333333333333" width="56.22222222222222" height="56.22222222222222" fill="#ffffff"/><path d="M 787.11 365.44 A 28.11 28.11 0 0 1  815.22 337.33 L 787.11 365.44 A 28.11 28.11 0 0 0 815.22 337.33" fill="#c63572"/><path d="M 56.22 393.56 A 56.22 56.22 0 0 1  112.44 449.78 L 56.22 393.56 A 56.22 56.22 0 0 0 112.44 449.78" fill="#cb457d"/><rect x="112.44444444444444" y="393.55555555555554" width="56.22222222222222" height="56.22222222222222" fill="#ffffff"/><path d="M 562.22 449.78 A 56.22 56.22 0 0 1  618.44 393.56 L 562.22 449.78 A 56.22 56.22 0 0 0 618.44 393.56" fill="#c83a75"/><rect x="674.6666666666666" y="393.55555555555554" width="56.22222222222222" height="56.22222222222222" fill="#ffffff"/><rect x="281.1111111111111" y="449.77777777777777" width="56.22222222222222" height="56.22222222222222" fill="#ffffff"/><path d="M 337.33 506 A 56.22 56.22 0 0 1  393.54999999999995 449.78 L 337.33 506 A 56.22 56.22 0 0 0 393.54999999999995 449.78" fill="#db7fa5"/><path d="M 449.78 506 A 56.22 56.22 0 0 1  506 449.78 L 449.78 506 A 56.22 56.22 0 0 0 506 449.78" fill="#f2d2df"/><path d="M 506 449.78 A 56.22 56.22 0 0 1  562.22 506 L 506 449.78 A 56.22 56.22 0 0 0 562.22 506" fill="#e7a8c2"/><path d="M 674.67 449.78 A 56.22 56.22 0 0 1  730.89 506 L 674.67 449.78 A 56.22 56.22 0 0 0 730.89 506" fill="#e39ab8"/><path d="M 730.89 506 A 56.22 56.22 0 0 1  787.11 449.78 L 730.89 506 A 56.22 56.22 0 0 0 787.11 449.78" fill="#d46593"/><rect x="843.3333333333334" y="449.77777777777777" width="56.22222222222222" height="56.22222222222222" fill="#ffffff"/><path d="M 843.33 506 A 28.11 28.11 0 0 1  871.44 477.89 L 843.33 506 A 28.11 28.11 0 0 0 871.44 477.89" fill="#cb467d"/></g></svg>